# xmcd
#
# Track frame offsets: 
#        150
#        13802
#        29579
#        45759
#        60644
#        75953
#        91871
#        106579
#        122710
#        138635
#        154301
#        170575
#        187031
#
# Disc length: 2694 seconds
#
# Revision: 0
# Processed by: cddbd v1.5.2PL0 Copyright (c) Steve Scherf et al.
# Submitted via: ExactAudioCopy v1.1
#
DISCID=9f0a840d
DTITLE=Lisa Angell - Lisa Angell
DYEAR=2015
DGENRE=Chanson
TTITLE0=N'Oubliez Pas
TTITLE1=Promets-Moi
TTITLE2=Si J'Etais
TTITLE3=Reste
TTITLE4=Jamais Non Jamais
TTITLE5=Ma Place
TTITLE6=A Cause
TTITLE7=Ma Vérité
TTITLE8=Quelques Notes
TTITLE9=Sans Ta Jalousie
TTITLE10=Les Larmes De Mon Coeur
TTITLE11=Si Tu Savais
TTITLE12=On Ne Fait Que Passer
EXTD=
EXTT0=
EXTT1=
EXTT2=
EXTT3=
EXTT4=
EXTT5=
EXTT6=
EXTT7=
EXTT8=
EXTT9=
EXTT10=
EXTT11=
EXTT12=
PLAYORDER=
